<!--?xml version="1.0" standalone="no"?-->
<svg id="sw-js-blob-svg" viewBox="0 0 100 100" xmlns="http://www.w3.org/2000/svg">
    <defs>
        <linearGradient id="sw-gradient" x1="0" x2="1" y1="1" y2="0">
            <stop id="stop1" stop-color="rgba(190.989, 42.082, 22.253, 1)" offset="0%"></stop>
            <stop id="stop2" stop-color="rgba(248, 203, 70, 1)" offset="100%"></stop>
        </linearGradient>
    </defs>
    <path fill="url(#sw-gradient)"
        d="M16,-27.8C18.1,-26.5,15.4,-16.9,15.9,-10.9C16.4,-4.9,20.1,-2.4,22.8,1.5C25.4,5.5,26.9,11,23.7,12.3C20.6,13.7,12.7,11,7.9,11.9C3.2,12.8,1.6,17.3,-0.2,17.6C-2,18,-4,14.1,-6,11.7C-8,9.2,-10.1,8.1,-15.5,6.4C-20.9,4.7,-29.6,2.3,-30.3,-0.4C-31,-3.2,-23.7,-6.3,-20.1,-11.2C-16.6,-16.1,-16.7,-22.7,-14,-23.6C-11.3,-24.6,-5.6,-19.9,0.7,-21C7,-22.1,13.9,-29.1,16,-27.8Z"
        width="100%" height="100%" transform="translate(50 50)" stroke-width="0" style="transition: all 0.3s ease 0s;">
    </path>
</svg>